<?xml version="1.0" encoding="UTF-8"?>
<svg version="1.1" xmlns="http://www.w3.org/2000/svg" width="50" height="50">
<path d="M0 0 C13.86 0 27.72 0 42 0 C42 9.24 42 18.48 42 28 C28.14 28 14.28 28 0 28 C0 18.76 0 9.52 0 0 Z M9 8 C9 8.66 9 9.32 9 10 C12.63 10 16.26 10 20 10 C20 9.34 20 8.68 20 8 C16.37 8 12.74 8 9 8 Z M9 18 C9 18.66 9 19.32 9 20 C12.63 20 16.26 20 20 20 C20 19.34 20 18.68 20 18 C16.37 18 12.74 18 9 18 Z " fill="#000000" transform="translate(4,15)"/>
<path d="M0 0 C13.86 0 27.72 0 42 0 C42 1.98 42 3.96 42 6 C28.14 6 14.28 6 0 6 C0 4.02 0 2.04 0 0 Z " fill="#000000" transform="translate(4,7)"/>
</svg>
